<?xml version="1.0" encoding="UTF-8" standalone="no"?>
<!-- Created with Inkscape (http://www.inkscape.org/) -->

<svg
   xmlns:dc="http://purl.org/dc/elements/1.1/"
   xmlns:cc="http://creativecommons.org/ns#"
   xmlns:rdf="http://www.w3.org/1999/02/22-rdf-syntax-ns#"
   xmlns:svg="http://www.w3.org/2000/svg"
   xmlns="http://www.w3.org/2000/svg"
   xmlns:sodipodi="http://sodipodi.sourceforge.net/DTD/sodipodi-0.dtd"
   xmlns:inkscape="http://www.inkscape.org/namespaces/inkscape"
   width="50mm"
   height="50mm"
   viewBox="0 0 50 50"
   version="1.1"
   id="svg8"
   inkscape:version="0.92.4 (5da689c313, 2019-01-14)"
   sodipodi:docname="icon.svg"
   inkscape:export-filename="D:\work\cookie-tables\public\icon128.png"
   inkscape:export-xdpi="65.024002"
   inkscape:export-ydpi="65.024002">
  <defs
     id="defs2" />
  <sodipodi:namedview
     id="base"
     pagecolor="#ffffff"
     bordercolor="#666666"
     borderopacity="1.0"
     inkscape:pageopacity="0.0"
     inkscape:pageshadow="2"
     inkscape:zoom="3.959798"
     inkscape:cx="95.328442"
     inkscape:cy="122.3341"
     inkscape:document-units="mm"
     inkscape:current-layer="layer1"
     showgrid="false"
     fit-margin-top="0"
     fit-margin-left="0"
     fit-margin-right="0"
     fit-margin-bottom="0"
     inkscape:window-width="1680"
     inkscape:window-height="987"
     inkscape:window-x="-8"
     inkscape:window-y="-8"
     inkscape:window-maximized="1" />
  <metadata
     id="metadata5">
    <rdf:RDF>
      <cc:Work
         rdf:about="">
        <dc:format>image/svg+xml</dc:format>
        <dc:type
           rdf:resource="http://purl.org/dc/dcmitype/StillImage" />
        <dc:title></dc:title>
      </cc:Work>
    </rdf:RDF>
  </metadata>
  <g
     inkscape:label="1. réteg"
     inkscape:groupmode="layer"
     id="layer1"
     transform="translate(13.179732,-136.8271)">
    <g
       id="g873"
       transform="matrix(1.0416435,0,0,1.0416435,-9.6727288,4.2128458)">
      <rect
         ry="5.6098685"
         y="128.06059"
         x="-1.4813156"
         height="46.505001"
         width="44.230129"
         id="rect853"
         style="opacity:1;fill:#e6e6e6;fill-opacity:1;stroke:#000000;stroke-width:1.00330138;stroke-linecap:round;stroke-linejoin:round;stroke-miterlimit:4;stroke-dasharray:none;stroke-opacity:1;paint-order:markers fill stroke" />
      <path
         sodipodi:nodetypes="ssccsss"
         inkscape:connector-curvature="0"
         id="rect897"
         d="m 4.1285024,128.06047 c -3.1078669,0 -5.609849,2.50198 -5.609849,5.60985 v 6.22544 H 42.748667 v -6.22544 c 0,-3.10787 -2.501981,-5.60985 -5.609849,-5.60985 z"
         style="opacity:1;fill:#999999;fill-opacity:1;stroke:#000000;stroke-width:1.00330138;stroke-linecap:round;stroke-linejoin:round;stroke-miterlimit:4;stroke-dasharray:none;stroke-opacity:1;paint-order:markers fill stroke" />
      <path
         inkscape:connector-curvature="0"
         id="path855"
         d="m 27.839005,128.054 v 46.26533"
         style="fill:#ffffff;fill-opacity:1;stroke:#000000;stroke-width:0.50165069;stroke-linecap:butt;stroke-linejoin:miter;stroke-miterlimit:4;stroke-dasharray:none;stroke-opacity:1" />
      <path
         style="fill:#ffffff;fill-opacity:1;stroke:#000000;stroke-width:0.50165069;stroke-linecap:butt;stroke-linejoin:miter;stroke-miterlimit:4;stroke-dasharray:none;stroke-opacity:1"
         d="M -1.3612447,147.14162 H 42.755151"
         id="path859"
         inkscape:connector-curvature="0" />
      <path
         inkscape:connector-curvature="0"
         id="path861"
         d="M -1.3612447,154.22047 H 42.755151"
         style="fill:#ffffff;fill-opacity:1;stroke:#000000;stroke-width:0.50165069;stroke-linecap:butt;stroke-linejoin:miter;stroke-miterlimit:4;stroke-dasharray:none;stroke-opacity:1" />
      <path
         style="fill:#ffffff;fill-opacity:1;stroke:#000000;stroke-width:0.50165069;stroke-linecap:butt;stroke-linejoin:miter;stroke-miterlimit:4;stroke-dasharray:none;stroke-opacity:1"
         d="M -1.3612447,161.29932 H 42.755151"
         id="path863"
         inkscape:connector-curvature="0" />
      <path
         inkscape:connector-curvature="0"
         id="path865"
         d="M -1.3612447,168.37818 H 42.755151"
         style="fill:#ffffff;fill-opacity:1;stroke:#000000;stroke-width:0.50165069;stroke-linecap:butt;stroke-linejoin:miter;stroke-miterlimit:4;stroke-dasharray:none;stroke-opacity:1" />
      <g
         transform="matrix(0.91224127,0,0,0.91224127,-18.417723,0.59742782)"
         id="g861">
        <path
           style="color:#000000;font-style:normal;font-variant:normal;font-weight:normal;font-stretch:normal;font-size:medium;line-height:normal;font-family:sans-serif;font-variant-ligatures:normal;font-variant-position:normal;font-variant-caps:normal;font-variant-numeric:normal;font-variant-alternates:normal;font-feature-settings:normal;text-indent:0;text-align:start;text-decoration:none;text-decoration-line:none;text-decoration-style:solid;text-decoration-color:#000000;letter-spacing:normal;word-spacing:normal;text-transform:none;writing-mode:lr-tb;direction:ltr;text-orientation:mixed;dominant-baseline:auto;baseline-shift:baseline;text-anchor:start;white-space:normal;shape-padding:0;clip-rule:nonzero;display:inline;overflow:visible;visibility:visible;opacity:1;isolation:auto;mix-blend-mode:normal;color-interpolation:sRGB;color-interpolation-filters:linearRGB;solid-color:#000000;solid-opacity:1;vector-effect:none;fill:#ffffff;fill-opacity:1;fill-rule:nonzero;stroke:none;stroke-width:3;stroke-linecap:round;stroke-linejoin:round;stroke-miterlimit:4;stroke-dasharray:none;stroke-dashoffset:0;stroke-opacity:1;paint-order:markers fill stroke;color-rendering:auto;image-rendering:auto;shape-rendering:auto;text-rendering:auto;enable-background:accumulate"
           d="m 35.982422,144.75391 c -0.150476,0.001 -0.299936,0.0248 -0.44336,0.0703 -9.627938,3.0284 -16.191377,11.9617 -16.203124,22.05469 v 0.002 c 1.2e-5,12.76696 10.381476,23.14842 23.148437,23.14844 12.76696,-2e-5 23.148425,-10.38148 23.148437,-23.14844 2e-6,-0.001 2e-6,-0.003 0,-0.004 -0.0041,-1.4103 -0.136285,-2.81702 -0.396484,-4.20312 -0.19019,-1.01702 -1.328555,-1.54073 -2.224609,-1.02344 -1.414504,0.81637 -3.017258,1.24844 -4.650391,1.25195 -2.971111,-0.004 -5.758759,-1.41986 -7.517578,-3.81445 -0.385247,-0.5241 -1.064352,-0.74021 -1.681641,-0.53516 -0.934938,0.30996 -1.913494,0.4701 -2.898437,0.47461 h -0.002 c -5.177318,-9.3e-4 -9.342568,-4.16448 -9.34375,-9.34179 v -0.002 c 0.0045,-1.00272 0.171355,-1.99916 0.492187,-2.94921 0.329587,-0.97515 -0.3984,-1.98497 -1.427734,-1.98047 z"
           id="path912"
           inkscape:connector-curvature="0"
           sodipodi:nodetypes="cccsccccccccccccccc" />
        <path
           style="opacity:1;fill:#333333;fill-opacity:1;stroke:none;stroke-width:0.89999992;stroke-linecap:round;stroke-linejoin:round;stroke-miterlimit:4;stroke-dasharray:none;stroke-opacity:1;paint-order:markers fill stroke"
           d="m 35.988799,146.25454 a 21.648832,21.648832 0 0 0 -15.15308,20.62613 21.648832,21.648832 0 0 0 21.648808,21.64881 21.648832,21.648832 0 0 0 21.648806,-21.64881 21.648832,21.648832 0 0 0 -0.371553,-3.93102 10.84504,10.84504 0 0 1 -5.402254,1.45211 10.84504,10.84504 0 0 1 -8.725566,-4.42506 10.84504,10.84504 0 0 1 -3.369818,0.55087 10.84504,10.84504 0 0 1 -10.845334,-10.84481 10.84504,10.84504 0 0 1 0.569991,-3.42822 z m -4.371309,7.51324 a 1.5846234,1.5846234 0 0 1 1.584399,1.5844 1.5846234,1.5846234 0 0 1 -1.584399,1.5844 1.5846234,1.5846234 0 0 1 -1.5844,-1.5844 1.5846234,1.5846234 0 0 1 1.5844,-1.5844 z m 5.480802,5.66942 a 0.7341768,0.7341768 0 0 1 0.733805,0.73432 0.7341768,0.7341768 0 0 1 -0.733805,0.73433 0.7341768,0.7341768 0 0 1 -0.734322,-0.73433 0.7341768,0.7341768 0 0 1 0.734322,-0.73432 z m -10.394714,5.85856 a 2.4350697,2.4350697 0 0 1 2.43551,2.43499 2.4350697,2.4350697 0 0 1 -2.43551,2.43551 2.4350697,2.4350697 0 0 1 -2.434994,-2.43551 2.4350697,2.4350697 0 0 1 2.434994,-2.43499 z m 16.064135,0.0946 a 2.5295638,2.5295638 0 0 1 2.529561,2.52956 2.5295638,2.5295638 0 0 1 -2.529561,2.52956 2.5295638,2.5295638 0 0 1 -2.529562,-2.52956 2.5295638,2.5295638 0 0 1 2.529562,-2.52956 z m -7.465177,1.98437 a 1.0176589,1.0176589 0 0 1 1.018026,1.01751 1.0176589,1.0176589 0 0 1 -1.018026,1.01803 1.0176589,1.0176589 0 0 1 -1.017509,-1.01803 1.0176589,1.0176589 0 0 1 1.017509,-1.01751 z m 16.253271,0.0946 a 1.112153,1.112153 0 0 1 1.112077,1.11208 1.112153,1.112153 0 0 1 -1.112077,1.11207 1.112153,1.112153 0 0 1 -1.112077,-1.11207 1.112153,1.112153 0 0 1 1.112077,-1.11208 z m 7.653796,3.02359 a 1.5846233,1.5846233 0 0 1 1.584916,1.58491 1.5846233,1.5846233 0 0 1 -1.584916,1.5844 1.5846233,1.5846233 0 0 1 -1.5844,-1.5844 1.5846233,1.5846233 0 0 1 1.5844,-1.58491 z m -16.914213,4.06332 a 1.206647,1.206647 0 0 1 1.206644,1.20664 1.206647,1.206647 0 0 1 -1.206644,1.20664 1.206647,1.206647 0 0 1 -1.206645,-1.20664 1.206647,1.206647 0 0 1 1.206645,-1.20664 z m -9.73274,0.2837 a 3.3800102,3.3800102 0 0 1 3.37964,3.37964 3.3800102,3.3800102 0 0 1 -3.37964,3.38015 3.3800102,3.3800102 0 0 1 -3.380154,-3.38015 3.3800102,3.3800102 0 0 1 3.380154,-3.37964 z m 17.764808,2.64583 a 3.096528,3.096528 0 0 1 3.096451,3.09645 3.096528,3.096528 0 0 1 -3.096451,3.09645 3.096528,3.096528 0 0 1 -3.096453,-3.09645 3.096528,3.096528 0 0 1 3.096453,-3.09645 z m -8.315772,6.42545 a 0.7341768,0.7341768 0 0 1 0.734322,0.73432 0.7341768,0.7341768 0 0 1 -0.734322,0.73432 0.7341768,0.7341768 0 0 1 -0.733805,-0.73432 0.7341768,0.7341768 0 0 1 0.733805,-0.73432 z"
           id="path815"
           inkscape:connector-curvature="0" />
      </g>
    </g>
  </g>
</svg>
