<?xml version="1.0" encoding="UTF-8" standalone="no"?>
<!-- Created with Inkscape (http://www.inkscape.org/) -->

<svg
   xmlns:dc="http://purl.org/dc/elements/1.1/"
   xmlns:cc="http://creativecommons.org/ns#"
   xmlns:rdf="http://www.w3.org/1999/02/22-rdf-syntax-ns#"
   xmlns:svg="http://www.w3.org/2000/svg"
   xmlns="http://www.w3.org/2000/svg"
   xmlns:sodipodi="http://sodipodi.sourceforge.net/DTD/sodipodi-0.dtd"
   xmlns:inkscape="http://www.inkscape.org/namespaces/inkscape"
   width="78.812546mm"
   height="83.703064mm"
   viewBox="0 0 78.812546 83.703064"
   version="1.1"
   id="svg8"
   inkscape:version="0.92.4 (5da689c313, 2019-01-14)"
   sodipodi:docname="logo.svg">
  <defs
     id="defs2" />
  <sodipodi:namedview
     id="base"
     pagecolor="#ffffff"
     bordercolor="#666666"
     borderopacity="1.0"
     inkscape:pageopacity="0.0"
     inkscape:pageshadow="2"
     inkscape:zoom="1.4"
     inkscape:cx="127.28994"
     inkscape:cy="167.76338"
     inkscape:document-units="mm"
     inkscape:current-layer="layer1"
     showgrid="false"
     fit-margin-top="0"
     fit-margin-left="0"
     fit-margin-right="0"
     fit-margin-bottom="0"
     inkscape:window-width="1680"
     inkscape:window-height="987"
     inkscape:window-x="-8"
     inkscape:window-y="-8"
     inkscape:window-maximized="1" />
  <metadata
     id="metadata5">
    <rdf:RDF>
      <cc:Work
         rdf:about="">
        <dc:format>image/svg+xml</dc:format>
        <dc:type
           rdf:resource="http://purl.org/dc/dcmitype/StillImage" />
        <dc:title />
      </cc:Work>
    </rdf:RDF>
  </metadata>
  <g
     inkscape:label="1. réteg"
     inkscape:groupmode="layer"
     id="layer1"
     transform="translate(13.179732,-115.79896)">
    <rect
       style="opacity:1;fill:#e6e6e6;fill-opacity:1;stroke:#000000;stroke-width:1.5;stroke-linecap:round;stroke-linejoin:round;stroke-miterlimit:4;stroke-dasharray:none;stroke-opacity:1;paint-order:markers fill stroke"
       id="rect853"
       width="66.126884"
       height="69.527962"
       x="-12.429686"
       y="116.54913"
       ry="8.3871136" />
    <path
       style="opacity:1;fill:#999999;fill-opacity:1;stroke:#000000;stroke-width:1.5;stroke-linecap:round;stroke-linejoin:round;stroke-miterlimit:4;stroke-dasharray:none;stroke-opacity:1;paint-order:markers fill stroke"
       d="m -4.0426473,116.54896 c -4.6464608,0 -8.3870847,3.74062 -8.3870847,8.38708 v 9.30744 H 53.69698 v -9.30744 c 0,-4.64646 -3.740623,-8.38708 -8.387085,-8.38708 z"
       id="rect897"
       inkscape:connector-curvature="0"
       sodipodi:nodetypes="ssccsss" />
    <path
       style="fill:#ffffff;fill-opacity:1;stroke:#000000;stroke-width:0.75;stroke-linecap:butt;stroke-linejoin:miter;stroke-miterlimit:4;stroke-dasharray:none;stroke-opacity:1"
       d="m 31.406078,116.53929 v 69.16964"
       id="path855"
       inkscape:connector-curvature="0" />
    <path
       inkscape:connector-curvature="0"
       id="path859"
       d="M -12.250172,145.0765 H 53.706674"
       style="fill:#ffffff;fill-opacity:1;stroke:#000000;stroke-width:0.75;stroke-linecap:butt;stroke-linejoin:miter;stroke-miterlimit:4;stroke-dasharray:none;stroke-opacity:1" />
    <path
       style="fill:#ffffff;fill-opacity:1;stroke:#000000;stroke-width:0.75;stroke-linecap:butt;stroke-linejoin:miter;stroke-miterlimit:4;stroke-dasharray:none;stroke-opacity:1"
       d="M -12.250172,155.65984 H 53.706674"
       id="path861"
       inkscape:connector-curvature="0" />
    <path
       inkscape:connector-curvature="0"
       id="path863"
       d="M -12.250172,166.24318 H 53.706674"
       style="fill:#ffffff;fill-opacity:1;stroke:#000000;stroke-width:0.75;stroke-linecap:butt;stroke-linejoin:miter;stroke-miterlimit:4;stroke-dasharray:none;stroke-opacity:1" />
    <path
       style="fill:#ffffff;fill-opacity:1;stroke:#000000;stroke-width:0.75;stroke-linecap:butt;stroke-linejoin:miter;stroke-miterlimit:4;stroke-dasharray:none;stroke-opacity:1"
       d="M -12.250172,176.82652 H 53.706674"
       id="path865"
       inkscape:connector-curvature="0" />
    <path
       style="color:#000000;font-style:normal;font-variant:normal;font-weight:normal;font-stretch:normal;font-size:medium;line-height:normal;font-family:sans-serif;font-variant-ligatures:normal;font-variant-position:normal;font-variant-caps:normal;font-variant-numeric:normal;font-variant-alternates:normal;font-feature-settings:normal;text-indent:0;text-align:start;text-decoration:none;text-decoration-line:none;text-decoration-style:solid;text-decoration-color:#000000;letter-spacing:normal;word-spacing:normal;text-transform:none;writing-mode:lr-tb;direction:ltr;text-orientation:mixed;dominant-baseline:auto;baseline-shift:baseline;text-anchor:start;white-space:normal;shape-padding:0;clip-rule:nonzero;display:inline;overflow:visible;visibility:visible;opacity:1;isolation:auto;mix-blend-mode:normal;color-interpolation:sRGB;color-interpolation-filters:linearRGB;solid-color:#000000;solid-opacity:1;vector-effect:none;fill:#ffffff;fill-opacity:1;fill-rule:nonzero;stroke:none;stroke-width:3;stroke-linecap:round;stroke-linejoin:round;stroke-miterlimit:4;stroke-dasharray:none;stroke-dashoffset:0;stroke-opacity:1;paint-order:markers fill stroke;color-rendering:auto;image-rendering:auto;shape-rendering:auto;text-rendering:auto;enable-background:accumulate"
       d="m 35.982422,144.75391 c -0.150476,0.001 -0.299936,0.0248 -0.44336,0.0703 -9.627938,3.0284 -16.191377,11.9617 -16.203124,22.05469 v 0.002 c 1.2e-5,12.76696 10.381476,23.14842 23.148437,23.14844 12.76696,-2e-5 23.148425,-10.38148 23.148437,-23.14844 2e-6,-0.001 2e-6,-0.003 0,-0.004 -0.0041,-1.4103 -0.136285,-2.81702 -0.396484,-4.20312 -0.19019,-1.01702 -1.328555,-1.54073 -2.224609,-1.02344 -1.414504,0.81637 -3.017258,1.24844 -4.650391,1.25195 -2.971111,-0.004 -5.758759,-1.41986 -7.517578,-3.81445 -0.385247,-0.5241 -1.064352,-0.74021 -1.681641,-0.53516 -0.934938,0.30996 -1.913494,0.4701 -2.898437,0.47461 h -0.002 c -5.177318,-9.3e-4 -9.342568,-4.16448 -9.34375,-9.34179 v -0.002 c 0.0045,-1.00272 0.171355,-1.99916 0.492187,-2.94921 0.329587,-0.97515 -0.3984,-1.98497 -1.427734,-1.98047 z"
       id="path912"
       inkscape:connector-curvature="0"
       sodipodi:nodetypes="cccsccccccccccccccc" />
    <path
       style="opacity:1;fill:#333333;fill-opacity:1;stroke:none;stroke-width:0.89999992;stroke-linecap:round;stroke-linejoin:round;stroke-miterlimit:4;stroke-dasharray:none;stroke-opacity:1;paint-order:markers fill stroke"
       d="m 35.988799,146.25454 a 21.648832,21.648832 0 0 0 -15.15308,20.62613 21.648832,21.648832 0 0 0 21.648808,21.64881 21.648832,21.648832 0 0 0 21.648806,-21.64881 21.648832,21.648832 0 0 0 -0.371553,-3.93102 10.84504,10.84504 0 0 1 -5.402254,1.45211 10.84504,10.84504 0 0 1 -8.725566,-4.42506 10.84504,10.84504 0 0 1 -3.369818,0.55087 10.84504,10.84504 0 0 1 -10.845334,-10.84481 10.84504,10.84504 0 0 1 0.569991,-3.42822 z m -4.371309,7.51324 a 1.5846234,1.5846234 0 0 1 1.584399,1.5844 1.5846234,1.5846234 0 0 1 -1.584399,1.5844 1.5846234,1.5846234 0 0 1 -1.5844,-1.5844 1.5846234,1.5846234 0 0 1 1.5844,-1.5844 z m 5.480802,5.66942 a 0.7341768,0.7341768 0 0 1 0.733805,0.73432 0.7341768,0.7341768 0 0 1 -0.733805,0.73433 0.7341768,0.7341768 0 0 1 -0.734322,-0.73433 0.7341768,0.7341768 0 0 1 0.734322,-0.73432 z m -10.394714,5.85856 a 2.4350697,2.4350697 0 0 1 2.43551,2.43499 2.4350697,2.4350697 0 0 1 -2.43551,2.43551 2.4350697,2.4350697 0 0 1 -2.434994,-2.43551 2.4350697,2.4350697 0 0 1 2.434994,-2.43499 z m 16.064135,0.0946 a 2.5295638,2.5295638 0 0 1 2.529561,2.52956 2.5295638,2.5295638 0 0 1 -2.529561,2.52956 2.5295638,2.5295638 0 0 1 -2.529562,-2.52956 2.5295638,2.5295638 0 0 1 2.529562,-2.52956 z m -7.465177,1.98437 a 1.0176589,1.0176589 0 0 1 1.018026,1.01751 1.0176589,1.0176589 0 0 1 -1.018026,1.01803 1.0176589,1.0176589 0 0 1 -1.017509,-1.01803 1.0176589,1.0176589 0 0 1 1.017509,-1.01751 z m 16.253271,0.0946 a 1.112153,1.112153 0 0 1 1.112077,1.11208 1.112153,1.112153 0 0 1 -1.112077,1.11207 1.112153,1.112153 0 0 1 -1.112077,-1.11207 1.112153,1.112153 0 0 1 1.112077,-1.11208 z m 7.653796,3.02359 a 1.5846233,1.5846233 0 0 1 1.584916,1.58491 1.5846233,1.5846233 0 0 1 -1.584916,1.5844 1.5846233,1.5846233 0 0 1 -1.5844,-1.5844 1.5846233,1.5846233 0 0 1 1.5844,-1.58491 z m -16.914213,4.06332 a 1.206647,1.206647 0 0 1 1.206644,1.20664 1.206647,1.206647 0 0 1 -1.206644,1.20664 1.206647,1.206647 0 0 1 -1.206645,-1.20664 1.206647,1.206647 0 0 1 1.206645,-1.20664 z m -9.73274,0.2837 a 3.3800102,3.3800102 0 0 1 3.37964,3.37964 3.3800102,3.3800102 0 0 1 -3.37964,3.38015 3.3800102,3.3800102 0 0 1 -3.380154,-3.38015 3.3800102,3.3800102 0 0 1 3.380154,-3.37964 z m 17.764808,2.64583 a 3.096528,3.096528 0 0 1 3.096451,3.09645 3.096528,3.096528 0 0 1 -3.096451,3.09645 3.096528,3.096528 0 0 1 -3.096453,-3.09645 3.096528,3.096528 0 0 1 3.096453,-3.09645 z m -8.315772,6.42545 a 0.7341768,0.7341768 0 0 1 0.734322,0.73432 0.7341768,0.7341768 0 0 1 -0.734322,0.73432 0.7341768,0.7341768 0 0 1 -0.733805,-0.73432 0.7341768,0.7341768 0 0 1 0.733805,-0.73432 z"
       id="path815"
       inkscape:connector-curvature="0" />
    <g
       aria-label="cookie-tables"
       style="font-style:normal;font-variant:normal;font-weight:bold;font-stretch:normal;font-size:9.68092632px;line-height:1.25;font-family:sans-serif;-inkscape-font-specification:'sans-serif Bold';letter-spacing:0px;word-spacing:0px;fill:#333333;fill-opacity:1;stroke:none;stroke-width:0.24202311"
       id="text918">
      <path
         d="m -6.758567,199.47839 q -0.6948711,0 -1.271567,-0.16545 -0.5719687,-0.16544 -0.9974001,-0.51051 -0.4207043,-0.34508 -0.652328,-0.86978 -0.2316237,-0.52469 -0.2316237,-1.22902 0,-0.74214 0.2458047,-1.28102 0.2505318,-0.53888 0.6948712,-0.89341 0.4301583,-0.33561 0.9926731,-0.49161 0.5625148,-0.15599 1.1675727,-0.15599 0.5436067,0 1.0021271,0.11818 0.4585204,0.11817 0.8555897,0.30725 v 1.4512 h -0.2410778 q -0.099267,-0.0851 -0.2410777,-0.19854 -0.1370835,-0.11344 -0.3403451,-0.22217 -0.1938076,-0.10399 -0.4254313,-0.17017 -0.2316237,-0.0709 -0.5388797,-0.0709 -0.6806901,0 -1.0493973,0.43488 -0.3639801,0.43016 -0.3639801,1.1723 0,0.76578 0.3734341,1.16285 0.3781612,0.39707 1.0683054,0.39707 0.321437,0 0.5766958,-0.0709 0.2599858,-0.0756 0.4301583,-0.1749 0.1607185,-0.0945 0.2836209,-0.19853 0.1229024,-0.104 0.2268967,-0.20327 h 0.2410778 v 1.4512 q -0.4017963,0.18908 -0.8414087,0.2978 -0.4348853,0.11345 -0.964311,0.11345 z"
         style="font-style:normal;font-variant:normal;font-weight:bold;font-stretch:normal;font-family:sans-serif;-inkscape-font-specification:'sans-serif Bold';fill:#333333;fill-opacity:1;stroke-width:0.24202311"
         id="path831" />
      <path
         d="m 1.594068,196.68472 q 0,1.30939 -0.76577637,2.06571 -0.76104938,0.75159 -2.14133773,0.75159 -1.3802883,0 -2.1460647,-0.75159 -0.7610494,-0.75632 -0.7610494,-2.06571 0,-1.31883 0.7657764,-2.07043 0.7705034,-0.75159 2.1413377,-0.75159 1.38974238,0 2.14606475,0.75632 0.76104935,0.75632 0.76104935,2.0657 z m -2.09406753,1.29048 q 0.16544552,-0.20326 0.24580477,-0.48688 0.0850863,-0.28835 0.0850863,-0.79414 0,-0.46798 -0.0850863,-0.78469 -0.0850863,-0.31671 -0.23635074,-0.50579 -0.15126447,-0.19381 -0.36398014,-0.27416 -0.21271566,-0.0804 -0.45852046,-0.0804 -0.2458047,0 -0.4396124,0.0662 -0.1890805,0.0662 -0.3639801,0.26472 -0.1559915,0.18435 -0.2505318,0.50579 -0.089813,0.32143 -0.089813,0.80832 0,0.43488 0.080359,0.75632 0.080359,0.31671 0.2363507,0.51052 0.1512645,0.18435 0.3592532,0.26944 0.2127156,0.0851 0.4821555,0.0851 0.2316237,0 0.43961234,-0.0756 0.21271567,-0.0804 0.35925313,-0.26471 z"
         style="font-style:normal;font-variant:normal;font-weight:bold;font-stretch:normal;font-family:sans-serif;-inkscape-font-specification:'sans-serif Bold';fill:#333333;fill-opacity:1;stroke-width:0.24202311"
         id="path833" />
      <path
         d="m 8.2497043,196.68472 q 0,1.30939 -0.7657764,2.06571 -0.7610493,0.75159 -2.1413377,0.75159 -1.3802883,0 -2.1460647,-0.75159 -0.7610494,-0.75632 -0.7610494,-2.06571 0,-1.31883 0.7657764,-2.07043 0.7705034,-0.75159 2.1413377,-0.75159 1.3897424,0 2.1460648,0.75632 0.7610493,0.75632 0.7610493,2.0657 z m -2.0940675,1.29048 q 0.1654455,-0.20326 0.2458048,-0.48688 0.085086,-0.28835 0.085086,-0.79414 0,-0.46798 -0.085086,-0.78469 -0.085086,-0.31671 -0.2363508,-0.50579 -0.1512645,-0.19381 -0.3639801,-0.27416 -0.2127157,-0.0804 -0.4585205,-0.0804 -0.2458047,0 -0.4396123,0.0662 -0.1890806,0.0662 -0.3639802,0.26472 -0.1559915,0.18435 -0.2505318,0.50579 -0.089813,0.32143 -0.089813,0.80832 0,0.43488 0.080359,0.75632 0.080359,0.31671 0.2363507,0.51052 0.1512645,0.18435 0.3592532,0.26944 0.2127156,0.0851 0.4821555,0.0851 0.2316237,0 0.4396124,-0.0756 0.2127156,-0.0804 0.3592531,-0.26471 z"
         style="font-style:normal;font-variant:normal;font-weight:bold;font-stretch:normal;font-family:sans-serif;-inkscape-font-specification:'sans-serif Bold';fill:#333333;fill-opacity:1;stroke-width:0.24202311"
         id="path835" />
      <path
         d="m 15.113331,199.33658 h -1.980619 l -1.48901,-2.31151 -0.463248,0.56251 v 1.749 H 9.4787291 v -7.35524 h 1.7017249 v 4.3914 l 1.834082,-2.3446 h 1.961711 l -1.909714,2.28788 z"
         style="font-style:normal;font-variant:normal;font-weight:bold;font-stretch:normal;font-family:sans-serif;-inkscape-font-specification:'sans-serif Bold';fill:#333333;fill-opacity:1;stroke-width:0.24202311"
         id="path837" />
      <path
         d="m 17.684826,199.33658 h -1.701725 v -5.30844 h 1.701725 z m 0.04727,-6.06476 h -1.796265 v -1.29048 h 1.796265 z"
         style="font-style:normal;font-variant:normal;font-weight:bold;font-stretch:normal;font-family:sans-serif;-inkscape-font-specification:'sans-serif Bold';fill:#333333;fill-opacity:1;stroke-width:0.24202311"
         id="path839" />
      <path
         d="m 24.520089,196.99671 h -3.89506 q 0.03782,0.62396 0.472702,0.95485 0.439612,0.33089 1.290475,0.33089 0.538879,0 1.04467,-0.1938 0.505791,-0.19381 0.798866,-0.41598 h 0.18908 v 1.36611 q -0.576696,0.23162 -1.087213,0.33561 -0.510518,0.104 -1.129757,0.104 -1.597731,0 -2.448593,-0.71851 -0.850863,-0.7185 -0.850863,-2.04679 0,-1.31411 0.803592,-2.07989 0.80832,-0.7705 2.212243,-0.7705 1.295202,0 1.94753,0.65705 0.652328,0.65233 0.652328,1.88135 z m -1.692271,-0.9974 q -0.01418,-0.53416 -0.264713,-0.8036 -0.250531,-0.26944 -0.779957,-0.26944 -0.49161,0 -0.80832,0.25526 -0.31671,0.25526 -0.354526,0.81778 z"
         style="font-style:normal;font-variant:normal;font-weight:bold;font-stretch:normal;font-family:sans-serif;-inkscape-font-specification:'sans-serif Bold';fill:#333333;fill-opacity:1;stroke-width:0.24202311"
         id="path841" />
      <path
         d="M 29.043842,196.88798 H 25.43713 v -1.36138 h 3.606712 z"
         style="font-style:normal;font-variant:normal;font-weight:bold;font-stretch:normal;font-family:sans-serif;-inkscape-font-specification:'sans-serif Bold';fill:#333333;fill-opacity:1;stroke-width:0.24202311"
         id="path843" />
      <path
         d="m 33.76613,199.28931 q -0.274167,0.0709 -0.581423,0.10872 -0.307256,0.0425 -0.751595,0.0425 -0.992674,0 -1.479556,-0.40179 -0.482156,-0.4018 -0.482156,-1.37556 v -2.48169 h -0.699598 v -1.15339 H 30.4714 v -1.51737 h 1.701726 v 1.51737 h 1.593004 v 1.15339 h -1.593004 v 1.88135 q 0,0.2789 0.0047,0.48689 0.0047,0.20799 0.07563,0.37343 0.06618,0.16545 0.231624,0.26471 0.170172,0.0945 0.491609,0.0945 0.132357,0 0.345072,-0.0567 0.217443,-0.0567 0.302529,-0.10399 h 0.141811 z"
         style="font-style:normal;font-variant:normal;font-weight:bold;font-stretch:normal;font-family:sans-serif;-inkscape-font-specification:'sans-serif Bold';fill:#333333;fill-opacity:1;stroke-width:0.24202311"
         id="path845" />
      <path
         d="m 37.992082,197.95156 v -1.10612 q -0.345072,0.0284 -0.746869,0.0804 -0.401796,0.0473 -0.609784,0.11345 -0.255259,0.0804 -0.392343,0.23635 -0.132356,0.15126 -0.132356,0.4018 0,0.16544 0.02836,0.26944 0.02836,0.10399 0.14181,0.19853 0.108722,0.0945 0.259986,0.14181 0.151265,0.0425 0.472702,0.0425 0.255259,0 0.515244,-0.10399 0.264713,-0.10399 0.463248,-0.27417 z m 0,0.8225 q -0.137084,0.104 -0.340345,0.25054 -0.203262,0.14653 -0.382888,0.23162 -0.250532,0.11345 -0.519972,0.16544 -0.26944,0.0567 -0.590877,0.0567 -0.756322,0 -1.26684,-0.46798 -0.510518,-0.46797 -0.510518,-1.19593 0,-0.58142 0.259986,-0.95013 0.259986,-0.36871 0.737415,-0.58142 0.472701,-0.21272 1.172299,-0.30253 0.699598,-0.0898 1.451194,-0.13236 v -0.0284 q 0,-0.43961 -0.359253,-0.60506 -0.359253,-0.17017 -1.058852,-0.17017 -0.420704,0 -0.898132,0.15126 -0.477429,0.14654 -0.685418,0.2269 H 34.84389 v -1.28102 q 0.26944,-0.0709 0.874498,-0.16545 0.609785,-0.0993 1.219569,-0.0993 1.451194,0 2.094068,0.44906 0.647601,0.44434 0.647601,1.3992 v 3.61144 h -1.687544 z"
         style="font-style:normal;font-variant:normal;font-weight:bold;font-stretch:normal;font-family:sans-serif;-inkscape-font-specification:'sans-serif Bold';fill:#333333;fill-opacity:1;stroke-width:0.24202311"
         id="path847" />
      <path
         d="m 46.78433,196.60909 q 0,1.25266 -0.694872,2.04207 -0.690144,0.78941 -1.72536,0.78941 -0.444339,0 -0.779957,-0.0945 -0.335618,-0.0945 -0.638147,-0.27416 l -0.07091,0.26471 h -1.63082 v -7.35524 h 1.701726 v 2.59986 q 0.392342,-0.31198 0.798865,-0.50579 0.41125,-0.19381 0.945403,-0.19381 1.006854,0 1.550461,0.72796 0.543607,0.72324 0.543607,1.99953 z m -1.753723,0.0331 q 0,-0.70905 -0.241078,-1.09194 -0.241077,-0.38289 -0.860316,-0.38289 -0.241078,0 -0.496337,0.0756 -0.255259,0.0709 -0.486882,0.20799 v 2.66604 q 0.184353,0.0662 0.349799,0.0898 0.165445,0.0236 0.397069,0.0236 0.675963,0 1.006854,-0.39707 0.330891,-0.39707 0.330891,-1.19121 z"
         style="font-style:normal;font-variant:normal;font-weight:bold;font-stretch:normal;font-family:sans-serif;-inkscape-font-specification:'sans-serif Bold';fill:#333333;fill-opacity:1;stroke-width:0.24202311"
         id="path849" />
      <path
         d="m 49.715079,199.33658 h -1.701726 v -7.35524 h 1.701726 z"
         style="font-style:normal;font-variant:normal;font-weight:bold;font-stretch:normal;font-family:sans-serif;-inkscape-font-specification:'sans-serif Bold';fill:#333333;fill-opacity:1;stroke-width:0.24202311"
         id="path851" />
      <path
         d="m 56.550342,196.99671 h -3.89506 q 0.03782,0.62396 0.472701,0.95485 0.439613,0.33089 1.290475,0.33089 0.53888,0 1.044671,-0.1938 0.50579,-0.19381 0.798865,-0.41598 h 0.189081 v 1.36611 q -0.576696,0.23162 -1.087214,0.33561 -0.510517,0.104 -1.129756,0.104 -1.597731,0 -2.448594,-0.71851 -0.850863,-0.7185 -0.850863,-2.04679 0,-1.31411 0.803593,-2.07989 0.808319,-0.7705 2.212243,-0.7705 1.295202,0 1.94753,0.65705 0.652328,0.65233 0.652328,1.88135 z m -1.692271,-0.9974 q -0.01418,-0.53416 -0.264713,-0.8036 -0.250532,-0.26944 -0.779958,-0.26944 -0.491609,0 -0.808319,0.25526 -0.31671,0.25526 -0.354526,0.81778 z"
         style="font-style:normal;font-variant:normal;font-weight:bold;font-stretch:normal;font-family:sans-serif;-inkscape-font-specification:'sans-serif Bold';fill:#333333;fill-opacity:1;stroke-width:0.24202311"
         id="path853" />
      <path
         d="m 62.364568,197.65376 q 0,0.8225 -0.737415,1.32829 -0.737414,0.50107 -2.018435,0.50107 -0.709052,0 -1.285748,-0.13236 -0.576696,-0.13236 -0.926495,-0.29308 v -1.39919 h 0.155992 q 0.127629,0.0898 0.293074,0.19853 0.170173,0.104 0.477429,0.2269 0.264713,0.10872 0.600331,0.18908 0.335618,0.0756 0.718506,0.0756 0.501064,0 0.742141,-0.10872 0.241078,-0.11345 0.241078,-0.33089 0,-0.19381 -0.14181,-0.27889 -0.141811,-0.0898 -0.53888,-0.17018 -0.189081,-0.0425 -0.515245,-0.0898 -0.321437,-0.052 -0.586149,-0.1229 -0.723234,-0.18908 -1.073033,-0.58615 -0.349799,-0.4018 -0.349799,-0.9974 0,-0.76578 0.723233,-1.27157 0.727961,-0.51052 1.985347,-0.51052 0.595604,0 1.13921,0.12291 0.548334,0.11817 0.85559,0.25525 v 1.34248 h -0.146538 q -0.378161,-0.25999 -0.865043,-0.42071 -0.482156,-0.16544 -0.978492,-0.16544 -0.411251,0 -0.694872,0.11345 -0.278893,0.11344 -0.278893,0.32143 0,0.18908 0.127629,0.28835 0.127629,0.0993 0.600331,0.19853 0.259986,0.052 0.557788,0.104 0.302529,0.0473 0.605058,0.1229 0.671236,0.1749 0.992673,0.55306 0.321437,0.37344 0.321437,0.93595 z"
         style="font-style:normal;font-variant:normal;font-weight:bold;font-stretch:normal;font-family:sans-serif;-inkscape-font-specification:'sans-serif Bold';fill:#333333;fill-opacity:1;stroke-width:0.24202311"
         id="path856" />
    </g>
  </g>
</svg>
